<?xml version="1.0" standalone="no"?>
<!DOCTYPE svg PUBLIC "-//W3C//DTD SVG 20010904//EN"
 "http://www.w3.org/TR/2001/REC-SVG-20010904/DTD/svg10.dtd">
<svg version="1.0" xmlns="http://www.w3.org/2000/svg"
 width="455.000000pt" height="455.000000pt" viewBox="0 0 455.000000 455.000000"
 preserveAspectRatio="xMidYMid meet">
<metadata>
Created by potrace 1.14, written by Peter Selinger 2001-2017
</metadata>
<g transform="translate(0.000000,455.000000) scale(0.100000,-0.100000)"
fill="#000000" stroke="none">
<path d="M0 2275 l0 -2275 2275 0 2275 0 0 2275 0 2275 -2275 0 -2275 0 0
-2275z m3404 2057 c94 -64 206 -141 250 -172 l78 -55 -1 -580 -2 -580 -22 -17
c-12 -10 -28 -18 -34 -18 -7 0 -86 -24 -175 -54 -90 -29 -257 -84 -373 -121
-115 -37 -246 -79 -290 -94 l-80 -26 -5 -1270 -5 -1270 -832 -3 c-528 -1 -833
1 -833 7 0 6 17 13 38 16 20 3 64 10 97 15 33 5 103 16 155 24 52 8 158 24
235 36 248 37 279 42 325 50 25 5 66 12 92 15 32 4 51 12 58 25 7 12 10 452
10 1267 0 984 3 1253 13 1266 11 15 142 60 730 251 166 55 240 83 247 96 6 12
10 216 10 540 0 578 4 546 -67 515 -21 -10 -51 -23 -68 -30 -39 -17 -262 -113
-300 -130 -16 -7 -93 -40 -170 -73 -182 -78 -395 -170 -420 -182 -11 -5 -85
-37 -165 -71 -141 -59 -415 -177 -475 -205 -36 -16 -177 -76 -260 -111 -33
-14 -78 -33 -100 -43 -22 -10 -89 -39 -150 -65 -60 -26 -128 -55 -150 -65 -22
-10 -89 -39 -150 -65 -60 -26 -130 -56 -155 -67 -25 -11 -58 -26 -75 -33 -16
-7 -52 -22 -79 -34 -80 -36 -148 -62 -153 -58 -7 8 23 26 142 85 66 33 404
200 750 372 347 172 967 481 1378 686 l749 374 30 -16 c17 -9 108 -68 202
-132z m665 -454 c108 -73 232 -157 276 -188 l80 -56 3 -506 c2 -422 0 -507
-12 -517 -7 -6 -87 -30 -177 -52 -90 -22 -180 -44 -199 -49 -19 -5 -120 -30
-225 -55 -104 -25 -230 -55 -280 -67 -49 -12 -96 -26 -102 -31 -10 -7 -13
-248 -13 -1143 l0 -1134 -22 -5 c-13 -3 -135 -4 -273 -3 l-250 3 -3 1231 c-2
978 1 1233 10 1241 14 10 67 28 458 153 140 45 311 101 380 124 l125 42 3 572
c2 431 5 572 14 572 6 0 100 -59 207 -132z m-3015 -1450 c8 -30 8 -372 0 -392
-4 -10 -18 -16 -39 -16 -42 0 -265 26 -393 46 -53 8 -131 19 -172 25 -41 5
-106 14 -145 20 -38 5 -94 12 -122 16 -65 7 -70 28 -10 43 23 6 195 62 382
124 403 133 466 154 481 155 7 1 14 -9 18 -21z"/>
</g>
</svg>